<svg xmlns="http://www.w3.org/2000/svg" viewBox="0 0 128 128" width="512" height="512">
  <title>Damicon - Widderhorn</title>
  <style>
    .tinte { fill: none; stroke: #00768f; stroke-linecap: round; stroke-linejoin: round; }
    .beere { fill: #b3123f; }
    .altyn { fill: #f2c14b; }
  </style>
  <g class="tinte" stroke-width="7.5">
    <path d="M82.8 77.5 L80.6 76.4 L78.5 75.1 L76.6 73.7 L74.8 72.1 L73.3 70.5 L71.8 68.8 L70.6 67.0 L69.5 65.1 L68.6 63.2 L67.9 61.3 L67.3 59.4 L66.9 57.5 L66.7 55.6 L66.6 53.7 L66.7 51.9 L66.9 50.1 L67.3 48.4 L67.8 46.7 L68.4 45.1 L69.1 43.7 L69.9 42.3 L70.8 41.0 L71.8 39.8 L72.9 38.7 L74.0 37.7 L75.1 36.9 L76.3 36.1 L77.6 35.5 L78.8 35.0 L80.1 34.6 L81.3 34.3 L82.6 34.1 L83.8 34.0 L85.0 34.0 L86.2 34.1 L87.4 34.3 L88.5 34.6 L89.5 35.0 L90.5 35.4 L91.4 36.0 L92.3 36.5 L93.1 37.1 L93.8 37.8 L94.5 38.5 L95.1 39.3 L95.6 40.1 L96.0 40.9 L96.4 41.7 L96.7 42.5 L96.9 43.3 L97.1 44.2 L97.2 45.0 L97.2 45.8 L97.1 46.6 L97.0 47.3 L96.8 48.0 L96.6 48.7 L96.3 49.4 L96.0 50.0 L95.7 50.6 L95.3 51.2 L94.8 51.7 L94.4 52.1 L93.9 52.5 L93.4 52.9 L92.9 53.2 L92.3 53.4 L91.8 53.6 L91.3 53.8 L90.7 53.9 L90.2 54.0"/>
    <path d="M45.2 77.5 L47.4 76.4 L49.5 75.1 L51.4 73.7 L53.2 72.1 L54.7 70.5 L56.2 68.8 L57.4 67.0 L58.5 65.1 L59.4 63.2 L60.1 61.3 L60.7 59.4 L61.1 57.5 L61.3 55.6 L61.4 53.7 L61.3 51.9 L61.1 50.1 L60.7 48.4 L60.2 46.7 L59.6 45.1 L58.9 43.7 L58.1 42.3 L57.2 41.0 L56.2 39.8 L55.1 38.7 L54.0 37.7 L52.9 36.9 L51.7 36.1 L50.4 35.5 L49.2 35.0 L47.9 34.6 L46.7 34.3 L45.4 34.1 L44.2 34.0 L43.0 34.0 L41.8 34.1 L40.6 34.3 L39.5 34.6 L38.5 35.0 L37.5 35.4 L36.6 36.0 L35.7 36.5 L34.9 37.1 L34.2 37.8 L33.5 38.5 L32.9 39.3 L32.4 40.1 L32.0 40.9 L31.6 41.7 L31.3 42.5 L31.1 43.3 L30.9 44.2 L30.8 45.0 L30.8 45.8 L30.9 46.6 L31.0 47.3 L31.2 48.0 L31.4 48.7 L31.7 49.4 L32.0 50.0 L32.3 50.6 L32.7 51.2 L33.2 51.7 L33.6 52.1 L34.1 52.5 L34.6 52.9 L35.1 53.2 L35.7 53.4 L36.2 53.6 L36.7 53.8 L37.3 53.9 L37.8 54.0"/>
    <path d="M44 86 Q64 96 84 86"/>
  </g>
  <g>
    
<circle class="beere" cx="56.5" cy="59" r="6.6"/>    <circle class="beere" cx="71.5" cy="59" r="6.6"/>    <circle class="beere" cx="64" cy="50" r="6.6"/>    <circle class="beere" cx="60" cy="68" r="6.6"/>    <circle class="beere" cx="68" cy="68" r="6.6"/>    <circle class="beere" cx="64" cy="76" r="6.6"/>
  </g>
  <path class="altyn" d="M70 48q9-6 14 1-8 6-14-1Z"/>
</svg>
